<mxfile host="app.diagrams.net" agent="Mozilla/5.0 (Windows NT 10.0; Win64; x64) AppleWebKit/537.36 (KHTML, like Gecko) Chrome/131.0.0.0 Safari/537.36" version="26.0.7">
  <diagram name="第 1 页" id="R4DH0BJwS-mU8cT8XBzc">
    <mxGraphModel dx="2022" dy="615" grid="1" gridSize="10" guides="1" tooltips="1" connect="1" arrows="1" fold="1" page="1" pageScale="1" pageWidth="827" pageHeight="1169" math="0" shadow="0">
      <root>
        <mxCell id="0" />
        <mxCell id="1" parent="0" />
        <mxCell id="OkDpywnv8kksOyAQZFO7-1" value="DRAM" style="rounded=0;whiteSpace=wrap;html=1;" parent="1" vertex="1">
          <mxGeometry x="160" y="100" width="480" height="60" as="geometry" />
        </mxCell>
        <mxCell id="OkDpywnv8kksOyAQZFO7-6" value="" style="rounded=0;whiteSpace=wrap;html=1;" parent="1" vertex="1">
          <mxGeometry x="90" y="230" width="670" height="380" as="geometry" />
        </mxCell>
        <mxCell id="OkDpywnv8kksOyAQZFO7-24" style="edgeStyle=orthogonalEdgeStyle;rounded=0;orthogonalLoop=1;jettySize=auto;html=1;exitX=1;exitY=0.5;exitDx=0;exitDy=0;" parent="1" source="OkDpywnv8kksOyAQZFO7-8" target="OkDpywnv8kksOyAQZFO7-9" edge="1">
          <mxGeometry relative="1" as="geometry">
            <Array as="points">
              <mxPoint x="540" y="325" />
              <mxPoint x="540" y="365" />
            </Array>
          </mxGeometry>
        </mxCell>
        <mxCell id="OkDpywnv8kksOyAQZFO7-8" value="Kernel SRAM" style="rounded=0;whiteSpace=wrap;html=1;" parent="1" vertex="1">
          <mxGeometry x="390" y="295" width="120" height="60" as="geometry" />
        </mxCell>
        <mxCell id="OkDpywnv8kksOyAQZFO7-9" value="PE Araay" style="whiteSpace=wrap;html=1;aspect=fixed;" parent="1" vertex="1">
          <mxGeometry x="620" y="300" width="130" height="130" as="geometry" />
        </mxCell>
        <mxCell id="OkDpywnv8kksOyAQZFO7-10" value="System Control" style="rounded=0;whiteSpace=wrap;html=1;" parent="1" vertex="1">
          <mxGeometry x="310" y="240" width="370" height="30" as="geometry" />
        </mxCell>
        <mxCell id="OkDpywnv8kksOyAQZFO7-11" value="Data Control" style="rounded=0;whiteSpace=wrap;html=1;" parent="1" vertex="1">
          <mxGeometry x="300" y="295" width="50" height="270" as="geometry" />
        </mxCell>
        <mxCell id="OkDpywnv8kksOyAQZFO7-22" value="" style="edgeStyle=orthogonalEdgeStyle;rounded=0;orthogonalLoop=1;jettySize=auto;html=1;" parent="1" source="OkDpywnv8kksOyAQZFO7-12" target="OkDpywnv8kksOyAQZFO7-11" edge="1">
          <mxGeometry relative="1" as="geometry" />
        </mxCell>
        <mxCell id="OkDpywnv8kksOyAQZFO7-12" value="Quantization" style="whiteSpace=wrap;html=1;aspect=fixed;" parent="1" vertex="1">
          <mxGeometry x="170" y="390" width="80" height="80" as="geometry" />
        </mxCell>
        <mxCell id="OkDpywnv8kksOyAQZFO7-16" value="" style="edgeStyle=orthogonalEdgeStyle;rounded=0;orthogonalLoop=1;jettySize=auto;html=1;" parent="1" source="OkDpywnv8kksOyAQZFO7-13" target="OkDpywnv8kksOyAQZFO7-12" edge="1">
          <mxGeometry relative="1" as="geometry" />
        </mxCell>
        <mxCell id="OkDpywnv8kksOyAQZFO7-13" value="Input Buffer" style="whiteSpace=wrap;html=1;aspect=fixed;" parent="1" vertex="1">
          <mxGeometry x="170" y="270" width="80" height="80" as="geometry" />
        </mxCell>
        <mxCell id="OkDpywnv8kksOyAQZFO7-14" value="" style="endArrow=classic;html=1;rounded=0;entryX=0.5;entryY=0;entryDx=0;entryDy=0;" parent="1" target="OkDpywnv8kksOyAQZFO7-13" edge="1">
          <mxGeometry width="50" height="50" relative="1" as="geometry">
            <mxPoint x="210" y="230" as="sourcePoint" />
            <mxPoint x="440" y="230" as="targetPoint" />
            <Array as="points">
              <mxPoint x="210" y="240" />
            </Array>
          </mxGeometry>
        </mxCell>
        <mxCell id="OkDpywnv8kksOyAQZFO7-19" value="Feature Map SRAM" style="rounded=0;whiteSpace=wrap;html=1;" parent="1" vertex="1">
          <mxGeometry x="390" y="380" width="120" height="60" as="geometry" />
        </mxCell>
        <mxCell id="OkDpywnv8kksOyAQZFO7-23" style="edgeStyle=orthogonalEdgeStyle;rounded=0;orthogonalLoop=1;jettySize=auto;html=1;entryX=0;entryY=0.801;entryDx=0;entryDy=0;entryPerimeter=0;startArrow=classic;startFill=1;" parent="1" source="OkDpywnv8kksOyAQZFO7-19" target="OkDpywnv8kksOyAQZFO7-9" edge="1">
          <mxGeometry relative="1" as="geometry">
            <Array as="points">
              <mxPoint x="520" y="404" />
              <mxPoint x="520" y="404" />
            </Array>
          </mxGeometry>
        </mxCell>
        <mxCell id="OkDpywnv8kksOyAQZFO7-26" value="classification" style="whiteSpace=wrap;html=1;aspect=fixed;" parent="1" vertex="1">
          <mxGeometry x="-50" y="490" width="80" height="80" as="geometry" />
        </mxCell>
        <mxCell id="OkDpywnv8kksOyAQZFO7-27" style="edgeStyle=orthogonalEdgeStyle;rounded=0;orthogonalLoop=1;jettySize=auto;html=1;entryX=0.014;entryY=0.667;entryDx=0;entryDy=0;entryPerimeter=0;" parent="1" source="OkDpywnv8kksOyAQZFO7-11" target="OkDpywnv8kksOyAQZFO7-8" edge="1">
          <mxGeometry relative="1" as="geometry">
            <Array as="points">
              <mxPoint x="370" y="335" />
              <mxPoint x="370" y="335" />
            </Array>
          </mxGeometry>
        </mxCell>
        <mxCell id="OkDpywnv8kksOyAQZFO7-29" value="" style="endArrow=classic;html=1;rounded=0;entryX=0;entryY=0.5;entryDx=0;entryDy=0;exitX=1.01;exitY=0.426;exitDx=0;exitDy=0;exitPerimeter=0;" parent="1" target="OkDpywnv8kksOyAQZFO7-19" edge="1" source="OkDpywnv8kksOyAQZFO7-11">
          <mxGeometry width="50" height="50" relative="1" as="geometry">
            <mxPoint x="350" y="520" as="sourcePoint" />
            <mxPoint x="370" y="460" as="targetPoint" />
          </mxGeometry>
        </mxCell>
        <mxCell id="OkDpywnv8kksOyAQZFO7-31" style="edgeStyle=orthogonalEdgeStyle;rounded=0;orthogonalLoop=1;jettySize=auto;html=1;entryX=1.01;entryY=0.594;entryDx=0;entryDy=0;entryPerimeter=0;" parent="1" source="OkDpywnv8kksOyAQZFO7-9" target="OkDpywnv8kksOyAQZFO7-26" edge="1">
          <mxGeometry relative="1" as="geometry">
            <Array as="points">
              <mxPoint x="685" y="590" />
              <mxPoint x="280" y="590" />
              <mxPoint x="280" y="538" />
              <mxPoint x="41" y="538" />
            </Array>
          </mxGeometry>
        </mxCell>
        <mxCell id="OkDpywnv8kksOyAQZFO7-34" style="edgeStyle=orthogonalEdgeStyle;rounded=0;orthogonalLoop=1;jettySize=auto;html=1;entryX=0.037;entryY=0.006;entryDx=0;entryDy=0;entryPerimeter=0;" parent="1" source="OkDpywnv8kksOyAQZFO7-26" target="OkDpywnv8kksOyAQZFO7-6" edge="1">
          <mxGeometry relative="1" as="geometry">
            <Array as="points">
              <mxPoint y="260" />
              <mxPoint x="115" y="260" />
            </Array>
          </mxGeometry>
        </mxCell>
        <mxCell id="ebzPi23pfYSnqGrzwmWH-1" value="De-Quantization" style="whiteSpace=wrap;html=1;aspect=fixed;" vertex="1" parent="1">
          <mxGeometry x="170" y="490" width="80" height="80" as="geometry" />
        </mxCell>
        <mxCell id="ebzPi23pfYSnqGrzwmWH-2" value="" style="shape=flexArrow;endArrow=classic;startArrow=classic;html=1;rounded=0;startWidth=26.666666666666668;startSize=12.941666666666666;endWidth=26.666666666666668;endSize=12.941666666666666;width=23.333333333333336;" edge="1" parent="1">
          <mxGeometry width="100" height="100" relative="1" as="geometry">
            <mxPoint x="80" y="200" as="sourcePoint" />
            <mxPoint x="760" y="200" as="targetPoint" />
          </mxGeometry>
        </mxCell>
        <mxCell id="ebzPi23pfYSnqGrzwmWH-3" value="Data Bus" style="edgeLabel;html=1;align=center;verticalAlign=middle;resizable=0;points=[];" vertex="1" connectable="0" parent="ebzPi23pfYSnqGrzwmWH-2">
          <mxGeometry x="0.0676" y="-2" relative="1" as="geometry">
            <mxPoint y="1" as="offset" />
          </mxGeometry>
        </mxCell>
      </root>
    </mxGraphModel>
  </diagram>
</mxfile>
